<svg width="248" height="48" viewBox="0 0 248 48" fill="none" xmlns="http://www.w3.org/2000/svg">
<path d="M12.5508 26.7188C12.4883 27.2422 12.3867 27.7734 12.2461 28.3125C12.1133 28.8438 11.9375 29.3516 11.7188 29.8359C11.5 30.3281 11.2383 30.7852 10.9336 31.207C10.6289 31.6289 10.2773 31.9922 9.87891 32.2969C9.48047 32.6016 9.02734 32.8359 8.51953 33C8.01953 33.1719 7.46484 33.25 6.85547 33.2344C6.43359 33.2266 6.03125 33.1602 5.64844 33.0352C5.27344 32.918 4.92969 32.7422 4.61719 32.5078C4.46094 32.3906 4.3125 32.2617 4.17188 32.1211C4.03906 31.9727 3.91406 31.8125 3.79688 31.6406L3.32812 33H0.445312L3.5625 15H6.75L5.50781 21.4805C5.67188 21.3086 5.83984 21.1523 6.01172 21.0117C6.19141 20.8633 6.37109 20.7344 6.55078 20.625C6.86328 20.4453 7.19531 20.3086 7.54688 20.2148C7.89844 20.1211 8.27344 20.0781 8.67188 20.0859C9.25 20.1016 9.75391 20.2031 10.1836 20.3906C10.6211 20.5781 10.9961 20.8281 11.3086 21.1406C11.6133 21.4531 11.8594 21.8203 12.0469 22.2422C12.2422 22.6562 12.3867 23.0977 12.4805 23.5664C12.5742 24.0352 12.625 24.5195 12.6328 25.0195C12.6484 25.5117 12.6328 25.9961 12.5859 26.4727L12.5508 26.7188ZM9.39844 26.4727C9.42188 26.2305 9.44141 25.9727 9.45703 25.6992C9.47266 25.418 9.47266 25.1406 9.45703 24.8672C9.43359 24.5938 9.38672 24.332 9.31641 24.082C9.25391 23.8242 9.15625 23.5977 9.02344 23.4023C8.88281 23.207 8.70312 23.0508 8.48438 22.9336C8.26562 22.8086 7.99219 22.7422 7.66406 22.7344C7.375 22.7266 7.10547 22.7578 6.85547 22.8281C6.61328 22.8906 6.38672 22.9883 6.17578 23.1211C5.98047 23.2383 5.79688 23.3828 5.625 23.5547C5.46094 23.7266 5.30859 23.918 5.16797 24.1289L4.28906 29.2148C4.35938 29.4336 4.45312 29.6289 4.57031 29.8008C4.6875 29.9648 4.82422 30.1055 4.98047 30.2227C5.16016 30.3555 5.375 30.4531 5.625 30.5156C5.875 30.5781 6.10156 30.6094 6.30469 30.6094C6.70312 30.6094 7.01172 30.5703 7.23047 30.4922C7.45703 30.4062 7.66797 30.2891 7.86328 30.1406C8.13672 29.9453 8.36719 29.6992 8.55469 29.4023C8.74219 29.0977 8.89062 28.7773 9 28.4414C9.09375 28.168 9.17188 27.8828 9.23438 27.5859C9.29688 27.2891 9.34375 27 9.375 26.7188L9.39844 26.4727ZM22.2891 33C22.2266 32.7969 22.1875 32.6016 22.1719 32.4141C22.1641 32.2188 22.1641 32.0195 22.1719 31.8164C22 31.9727 21.8242 32.1211 21.6445 32.2617C21.4648 32.3945 21.2812 32.5156 21.0938 32.625C20.7344 32.8281 20.3516 32.9805 19.9453 33.082C19.5391 33.1914 19.1094 33.2422 18.6562 33.2344C18.125 33.2266 17.6172 33.1367 17.1328 32.9648C16.6562 32.7852 16.2422 32.5352 15.8906 32.2148C15.5312 31.9023 15.2539 31.5195 15.0586 31.0664C14.8633 30.6133 14.7773 30.1055 14.8008 29.543C14.8242 28.9805 14.9297 28.4844 15.1172 28.0547C15.3125 27.625 15.5664 27.25 15.8789 26.9297C16.1914 26.6094 16.5508 26.3438 16.957 26.1328C17.3633 25.9141 17.7969 25.7383 18.2578 25.6055C18.7188 25.4727 19.1914 25.3789 19.6758 25.3242C20.168 25.2695 20.6523 25.2422 21.1289 25.2422L22.957 25.2656L23.1094 24.4805C23.1562 24.1758 23.1445 23.9023 23.0742 23.6602C23.0117 23.418 22.9023 23.2109 22.7461 23.0391C22.582 22.875 22.3789 22.75 22.1367 22.6641C21.8945 22.5703 21.6211 22.5195 21.3164 22.5117C21.0352 22.5039 20.7734 22.5352 20.5312 22.6055C20.2969 22.668 20.0898 22.7695 19.9102 22.9102C19.7383 23.0352 19.5938 23.1992 19.4766 23.4023C19.3672 23.5977 19.2852 23.8242 19.2305 24.082L16.0547 24.1055C16.1016 23.4023 16.3008 22.7969 16.6523 22.2891C17.0039 21.7734 17.4453 21.3477 17.9766 21.0117C18.5078 20.6836 19.0938 20.4453 19.7344 20.2969C20.3828 20.1406 21.0234 20.0664 21.6562 20.0742C22.3203 20.0898 22.9492 20.1953 23.543 20.3906C24.1367 20.5859 24.6523 20.8672 25.0898 21.2344C25.5195 21.6094 25.8438 22.0703 26.0625 22.6172C26.2891 23.1641 26.3672 23.8008 26.2969 24.5273L25.418 29.9766C25.3477 30.4375 25.293 30.9102 25.2539 31.3945C25.2227 31.8711 25.2891 32.3359 25.4531 32.7891L25.4414 33H22.2891ZM19.4883 30.7266C19.8086 30.7344 20.1211 30.6992 20.4258 30.6211C20.7305 30.543 21.0156 30.4258 21.2812 30.2695C21.4688 30.1602 21.6484 30.0312 21.8203 29.8828C22 29.7344 22.1641 29.5703 22.3125 29.3906L22.7109 27.1992L21.2695 27.1875C20.957 27.1875 20.6406 27.2148 20.3203 27.2695C20 27.3242 19.6992 27.4102 19.418 27.5273C19.2383 27.6211 19.0625 27.7266 18.8906 27.8438C18.7188 27.9531 18.5703 28.0898 18.4453 28.2539C18.3438 28.3867 18.2578 28.5391 18.1875 28.7109C18.1172 28.8828 18.0664 29.0742 18.0352 29.2852C18.0039 29.5273 18.0195 29.7383 18.082 29.918C18.1445 30.0977 18.2422 30.2461 18.375 30.3633C18.5078 30.4805 18.668 30.5703 18.8555 30.6328C19.0508 30.6953 19.2617 30.7266 19.4883 30.7266ZM37.1602 29.4492C37.1992 29.2539 37.1797 29.0859 37.1016 28.9453C37.0234 28.7969 36.9141 28.668 36.7734 28.5586C36.6562 28.4727 36.5156 28.3945 36.3516 28.3242C36.1875 28.2539 36.0234 28.1992 35.8594 28.1602C35.5312 28.0898 35.2227 28.0234 34.9336 27.9609C34.6523 27.8906 34.3867 27.8242 34.1367 27.7617C33.6523 27.6367 33.2188 27.4961 32.8359 27.3398C32.4531 27.1758 32.0781 26.9688 31.7109 26.7188C31.2734 26.4297 30.918 26.0703 30.6445 25.6406C30.3711 25.2109 30.2461 24.6953 30.2695 24.0938C30.293 23.3047 30.5312 22.6328 30.9844 22.0781C31.4453 21.5234 32.0117 21.0898 32.6836 20.7773C33.1602 20.5508 33.6875 20.3789 34.2656 20.2617C34.8516 20.1367 35.4141 20.0781 35.9531 20.0859C36.5938 20.0938 37.2188 20.1797 37.8281 20.3438C38.4375 20.5 38.9844 20.7461 39.4688 21.082C39.9453 21.418 40.3281 21.8438 40.6172 22.3594C40.9141 22.8672 41.0625 23.4766 41.0625 24.1875L37.8984 24.1758C37.9062 23.8711 37.8555 23.6094 37.7461 23.3906C37.6445 23.1719 37.5 22.9922 37.3125 22.8516C37.125 22.7188 36.9023 22.6211 36.6445 22.5586C36.3945 22.4883 36.125 22.4531 35.8359 22.4531C35.5938 22.4531 35.3359 22.4766 35.0625 22.5234C34.7891 22.5703 34.5312 22.6484 34.2891 22.7578C34.0469 22.875 33.8359 23.0312 33.6562 23.2266C33.4844 23.4141 33.375 23.6484 33.3281 23.9297C33.2734 24.2266 33.3203 24.4648 33.4688 24.6445C33.6172 24.8242 33.8086 24.9648 34.043 25.0664C34.2773 25.1758 34.5312 25.2578 34.8047 25.3125C35.0781 25.3672 35.3164 25.4141 35.5195 25.4531C35.832 25.5156 36.1562 25.5898 36.4922 25.6758C36.8281 25.7539 37.1562 25.8516 37.4766 25.9688C37.6953 26.0469 37.9102 26.1328 38.1211 26.2266C38.332 26.3203 38.5312 26.4258 38.7188 26.543C39.1797 26.832 39.5547 27.1992 39.8438 27.6445C40.1406 28.0898 40.2734 28.6406 40.2422 29.2969C40.2031 30.0938 39.9609 30.7578 39.5156 31.2891C39.0703 31.8125 38.5312 32.2266 37.8984 32.5312C37.3438 32.7812 36.7461 32.9648 36.1055 33.082C35.4648 33.1992 34.8633 33.2539 34.3008 33.2461C33.6523 33.2383 33.0156 33.1445 32.3906 32.9648C31.7656 32.7852 31.207 32.5156 30.7148 32.1562C30.2148 31.8047 29.8086 31.3672 29.4961 30.8438C29.1914 30.3125 29.0391 29.6875 29.0391 28.9688L32.0508 28.9805C32.0664 29.3242 32.1406 29.6172 32.2734 29.8594C32.4062 30.1016 32.5859 30.2969 32.8125 30.4453C33.0312 30.6016 33.2812 30.7148 33.5625 30.7852C33.8516 30.8555 34.1562 30.8906 34.4766 30.8906C34.7188 30.8906 34.9844 30.8711 35.2734 30.832C35.5703 30.793 35.8516 30.7188 36.1172 30.6094C36.375 30.5078 36.5977 30.3633 36.7852 30.1758C36.9805 29.9883 37.1055 29.7461 37.1602 29.4492ZM48.7734 33.2344C47.9062 33.2266 47.1211 33.0625 46.418 32.7422C45.7227 32.4219 45.1367 31.9883 44.6602 31.4414C44.1758 30.9023 43.8203 30.2656 43.5938 29.5312C43.3672 28.7969 43.293 28 43.3711 27.1406L43.418 26.6602C43.4961 25.957 43.6602 25.2773 43.9102 24.6211C44.168 23.9648 44.4961 23.3633 44.8945 22.8164C45.1758 22.457 45.4844 22.1211 45.8203 21.8086C46.1562 21.4883 46.5156 21.2109 46.8984 20.9766C47.3828 20.6875 47.9102 20.4648 48.4805 20.3086C49.0508 20.1445 49.6523 20.0703 50.2852 20.0859C51.168 20.1094 51.9297 20.293 52.5703 20.6367C53.2109 20.9805 53.7305 21.4375 54.1289 22.0078C54.5195 22.5859 54.7852 23.2461 54.9258 23.9883C55.0742 24.7305 55.0977 25.5117 54.9961 26.332L54.7852 27.7148H46.5C46.4844 28.1211 46.5352 28.5 46.6523 28.8516C46.7695 29.1953 46.9414 29.4961 47.168 29.7539C47.3867 30.0117 47.6602 30.2188 47.9883 30.375C48.3164 30.5234 48.6914 30.6016 49.1133 30.6094C49.7773 30.6328 50.4023 30.5195 50.9883 30.2695C51.582 30.0117 52.1055 29.6484 52.5586 29.1797L54 30.9492C53.4375 31.7305 52.6758 32.3086 51.7148 32.6836C50.7617 33.0586 49.7812 33.2422 48.7734 33.2344ZM50.0508 22.7109C49.6289 22.6953 49.25 22.7656 48.9141 22.9219C48.5781 23.0781 48.2812 23.2891 48.0234 23.5547C47.7578 23.8203 47.5273 24.1211 47.332 24.457C47.1367 24.793 46.9648 25.1328 46.8164 25.4766H51.9844L52.043 25.1836C52.0977 24.8398 52.0898 24.5195 52.0195 24.2227C51.9492 23.9258 51.8281 23.668 51.6562 23.4492C51.4766 23.2305 51.25 23.0586 50.9766 22.9336C50.7109 22.8008 50.4023 22.7266 50.0508 22.7109ZM65.332 29.4492C65.3711 29.2539 65.3516 29.0859 65.2734 28.9453C65.1953 28.7969 65.0859 28.668 64.9453 28.5586C64.8281 28.4727 64.6875 28.3945 64.5234 28.3242C64.3594 28.2539 64.1953 28.1992 64.0312 28.1602C63.7031 28.0898 63.3945 28.0234 63.1055 27.9609C62.8242 27.8906 62.5586 27.8242 62.3086 27.7617C61.8242 27.6367 61.3906 27.4961 61.0078 27.3398C60.625 27.1758 60.25 26.9688 59.8828 26.7188C59.4453 26.4297 59.0898 26.0703 58.8164 25.6406C58.543 25.2109 58.418 24.6953 58.4414 24.0938C58.4648 23.3047 58.7031 22.6328 59.1562 22.0781C59.6172 21.5234 60.1836 21.0898 60.8555 20.7773C61.332 20.5508 61.8594 20.3789 62.4375 20.2617C63.0234 20.1367 63.5859 20.0781 64.125 20.0859C64.7656 20.0938 65.3906 20.1797 66 20.3438C66.6094 20.5 67.1562 20.7461 67.6406 21.082C68.1172 21.418 68.5 21.8438 68.7891 22.3594C69.0859 22.8672 69.2344 23.4766 69.2344 24.1875L66.0703 24.1758C66.0781 23.8711 66.0273 23.6094 65.918 23.3906C65.8164 23.1719 65.6719 22.9922 65.4844 22.8516C65.2969 22.7188 65.0742 22.6211 64.8164 22.5586C64.5664 22.4883 64.2969 22.4531 64.0078 22.4531C63.7656 22.4531 63.5078 22.4766 63.2344 22.5234C62.9609 22.5703 62.7031 22.6484 62.4609 22.7578C62.2188 22.875 62.0078 23.0312 61.8281 23.2266C61.6562 23.4141 61.5469 23.6484 61.5 23.9297C61.4453 24.2266 61.4922 24.4648 61.6406 24.6445C61.7891 24.8242 61.9805 24.9648 62.2148 25.0664C62.4492 25.1758 62.7031 25.2578 62.9766 25.3125C63.25 25.3672 63.4883 25.4141 63.6914 25.4531C64.0039 25.5156 64.3281 25.5898 64.6641 25.6758C65 25.7539 65.3281 25.8516 65.6484 25.9688C65.8672 26.0469 66.082 26.1328 66.293 26.2266C66.5039 26.3203 66.7031 26.4258 66.8906 26.543C67.3516 26.832 67.7266 27.1992 68.0156 27.6445C68.3125 28.0898 68.4453 28.6406 68.4141 29.2969C68.375 30.0938 68.1328 30.7578 67.6875 31.2891C67.2422 31.8125 66.7031 32.2266 66.0703 32.5312C65.5156 32.7812 64.918 32.9648 64.2773 33.082C63.6367 33.1992 63.0352 33.2539 62.4727 33.2461C61.8242 33.2383 61.1875 33.1445 60.5625 32.9648C59.9375 32.7852 59.3789 32.5156 58.8867 32.1562C58.3867 31.8047 57.9805 31.3672 57.668 30.8438C57.3633 30.3125 57.2109 29.6875 57.2109 28.9688L60.2227 28.9805C60.2383 29.3242 60.3125 29.6172 60.4453 29.8594C60.5781 30.1016 60.7578 30.2969 60.9844 30.4453C61.2031 30.6016 61.4531 30.7148 61.7344 30.7852C62.0234 30.8555 62.3281 30.8906 62.6484 30.8906C62.8906 30.8906 63.1562 30.8711 63.4453 30.832C63.7422 30.793 64.0234 30.7188 64.2891 30.6094C64.5469 30.5078 64.7695 30.3633 64.957 30.1758C65.1523 29.9883 65.2773 29.7461 65.332 29.4492ZM76.6523 30.6445C76.9648 30.6523 77.2617 30.6133 77.543 30.5273C77.832 30.4414 78.0938 30.3125 78.3281 30.1406C78.5547 29.9766 78.7461 29.7695 78.9023 29.5195C79.0664 29.2695 79.1719 28.9883 79.2188 28.6758L82.1953 28.6523C82.1562 29.3711 81.9648 30.0195 81.6211 30.5977C81.2773 31.168 80.8398 31.6523 80.3086 32.0508C79.7695 32.4492 79.168 32.7539 78.5039 32.9648C77.8477 33.168 77.1797 33.2617 76.5 33.2461C75.9219 33.2383 75.3945 33.1602 74.918 33.0117C74.4492 32.8633 74.0352 32.6641 73.6758 32.4141C73.1914 32.0625 72.7852 31.6328 72.457 31.125C72.1367 30.6094 71.9062 30.0469 71.7656 29.4375C71.6719 29.0469 71.6133 28.6367 71.5898 28.207C71.5664 27.7695 71.5781 27.3281 71.625 26.8828L71.6602 26.5195C71.7695 25.6055 72.0117 24.7539 72.3867 23.9648C72.7617 23.168 73.2617 22.4492 73.8867 21.8086C74.4414 21.2461 75.0898 20.8125 75.832 20.5078C76.582 20.2031 77.4062 20.0625 78.3047 20.0859C79.0312 20.1016 79.6875 20.2305 80.2734 20.4727C80.8594 20.7148 81.3594 21.0508 81.7734 21.4805C82.1797 21.918 82.4844 22.4375 82.6875 23.0391C82.8984 23.6328 82.9844 24.293 82.9453 25.0195L79.957 25.0078C79.9805 24.6953 79.957 24.4023 79.8867 24.1289C79.8164 23.8477 79.6992 23.6055 79.5352 23.4023C79.3711 23.1992 79.1641 23.0391 78.9141 22.9219C78.6641 22.7969 78.3711 22.7266 78.0352 22.7109C77.6836 22.7031 77.3672 22.7461 77.0859 22.8398C76.8047 22.9336 76.5547 23.0664 76.3359 23.2383C76.1641 23.3789 76.0039 23.543 75.8555 23.7305C75.707 23.918 75.5859 24.1055 75.4922 24.293C75.3125 24.6289 75.168 24.9922 75.0586 25.3828C74.957 25.7656 74.8828 26.1445 74.8359 26.5195L74.7891 26.8711C74.7656 27.1211 74.7461 27.3906 74.7305 27.6797C74.7227 27.9609 74.7305 28.2383 74.7539 28.5117C74.793 28.8242 74.8594 29.1289 74.9531 29.4258C75.0469 29.7148 75.1953 29.9609 75.3984 30.1641C75.5391 30.3047 75.7109 30.418 75.9141 30.5039C76.125 30.5898 76.3711 30.6367 76.6523 30.6445ZM89.8477 22.0898C90.0117 21.8789 90.1875 21.6797 90.375 21.4922C90.5625 21.2969 90.7578 21.1211 90.9609 20.9648C91.3203 20.6914 91.7148 20.4766 92.1445 20.3203C92.582 20.1562 93.0508 20.0781 93.5508 20.0859C94.3008 20.0938 94.9258 20.2461 95.4258 20.543C95.9336 20.8398 96.332 21.2305 96.6211 21.7148C96.9023 22.207 97.0859 22.7656 97.1719 23.3906C97.2656 24.0156 97.2773 24.6602 97.207 25.3242L95.9297 33H92.7422L94.043 25.2891C94.082 24.9375 94.082 24.6133 94.043 24.3164C94.0117 24.0117 93.9258 23.7422 93.7852 23.5078C93.6445 23.2812 93.4492 23.1016 93.1992 22.9688C92.9492 22.8359 92.6328 22.7617 92.25 22.7461C91.9844 22.7383 91.7305 22.7617 91.4883 22.8164C91.2539 22.8633 91.0273 22.9336 90.8086 23.0273C90.6055 23.1211 90.4102 23.2383 90.2227 23.3789C90.0352 23.5117 89.8555 23.6641 89.6836 23.8359L88.0664 33H84.8906L88.0195 15H91.1953L89.8477 22.0898ZM106.805 33C106.742 32.7969 106.703 32.6016 106.688 32.4141C106.68 32.2188 106.68 32.0195 106.688 31.8164C106.516 31.9727 106.34 32.1211 106.16 32.2617C105.98 32.3945 105.797 32.5156 105.609 32.625C105.25 32.8281 104.867 32.9805 104.461 33.082C104.055 33.1914 103.625 33.2422 103.172 33.2344C102.641 33.2266 102.133 33.1367 101.648 32.9648C101.172 32.7852 100.758 32.5352 100.406 32.2148C100.047 31.9023 99.7695 31.5195 99.5742 31.0664C99.3789 30.6133 99.293 30.1055 99.3164 29.543C99.3398 28.9805 99.4453 28.4844 99.6328 28.0547C99.8281 27.625 100.082 27.25 100.395 26.9297C100.707 26.6094 101.066 26.3438 101.473 26.1328C101.879 25.9141 102.312 25.7383 102.773 25.6055C103.234 25.4727 103.707 25.3789 104.191 25.3242C104.684 25.2695 105.168 25.2422 105.645 25.2422L107.473 25.2656L107.625 24.4805C107.672 24.1758 107.66 23.9023 107.59 23.6602C107.527 23.418 107.418 23.2109 107.262 23.0391C107.098 22.875 106.895 22.75 106.652 22.6641C106.41 22.5703 106.137 22.5195 105.832 22.5117C105.551 22.5039 105.289 22.5352 105.047 22.6055C104.812 22.668 104.605 22.7695 104.426 22.9102C104.254 23.0352 104.109 23.1992 103.992 23.4023C103.883 23.5977 103.801 23.8242 103.746 24.082L100.57 24.1055C100.617 23.4023 100.816 22.7969 101.168 22.2891C101.52 21.7734 101.961 21.3477 102.492 21.0117C103.023 20.6836 103.609 20.4453 104.25 20.2969C104.898 20.1406 105.539 20.0664 106.172 20.0742C106.836 20.0898 107.465 20.1953 108.059 20.3906C108.652 20.5859 109.168 20.8672 109.605 21.2344C110.035 21.6094 110.359 22.0703 110.578 22.6172C110.805 23.1641 110.883 23.8008 110.812 24.5273L109.934 29.9766C109.863 30.4375 109.809 30.9102 109.77 31.3945C109.738 31.8711 109.805 32.3359 109.969 32.7891L109.957 33H106.805ZM104.004 30.7266C104.324 30.7344 104.637 30.6992 104.941 30.6211C105.246 30.543 105.531 30.4258 105.797 30.2695C105.984 30.1602 106.164 30.0312 106.336 29.8828C106.516 29.7344 106.68 29.5703 106.828 29.3906L107.227 27.1992L105.785 27.1875C105.473 27.1875 105.156 27.2148 104.836 27.2695C104.516 27.3242 104.215 27.4102 103.934 27.5273C103.754 27.6211 103.578 27.7266 103.406 27.8438C103.234 27.9531 103.086 28.0898 102.961 28.2539C102.859 28.3867 102.773 28.5391 102.703 28.7109C102.633 28.8828 102.582 29.0742 102.551 29.2852C102.52 29.5273 102.535 29.7383 102.598 29.918C102.66 30.0977 102.758 30.2461 102.891 30.3633C103.023 30.4805 103.184 30.5703 103.371 30.6328C103.566 30.6953 103.777 30.7266 104.004 30.7266ZM116.848 15H123.738L121.078 30.3516H124.605L124.137 33H113.719L114.188 30.3516H117.867L120.07 17.6602H116.379L116.848 15ZM130.934 15H137.824L135.164 30.3516H138.691L138.223 33H127.805L128.273 30.3516H131.953L134.156 17.6602H130.465L130.934 15ZM149.062 33C149 32.7969 148.961 32.6016 148.945 32.4141C148.938 32.2188 148.938 32.0195 148.945 31.8164C148.773 31.9727 148.598 32.1211 148.418 32.2617C148.238 32.3945 148.055 32.5156 147.867 32.625C147.508 32.8281 147.125 32.9805 146.719 33.082C146.312 33.1914 145.883 33.2422 145.43 33.2344C144.898 33.2266 144.391 33.1367 143.906 32.9648C143.43 32.7852 143.016 32.5352 142.664 32.2148C142.305 31.9023 142.027 31.5195 141.832 31.0664C141.637 30.6133 141.551 30.1055 141.574 29.543C141.598 28.9805 141.703 28.4844 141.891 28.0547C142.086 27.625 142.34 27.25 142.652 26.9297C142.965 26.6094 143.324 26.3438 143.73 26.1328C144.137 25.9141 144.57 25.7383 145.031 25.6055C145.492 25.4727 145.965 25.3789 146.449 25.3242C146.941 25.2695 147.426 25.2422 147.902 25.2422L149.73 25.2656L149.883 24.4805C149.93 24.1758 149.918 23.9023 149.848 23.6602C149.785 23.418 149.676 23.2109 149.52 23.0391C149.355 22.875 149.152 22.75 148.91 22.6641C148.668 22.5703 148.395 22.5195 148.09 22.5117C147.809 22.5039 147.547 22.5352 147.305 22.6055C147.07 22.668 146.863 22.7695 146.684 22.9102C146.512 23.0352 146.367 23.1992 146.25 23.4023C146.141 23.5977 146.059 23.8242 146.004 24.082L142.828 24.1055C142.875 23.4023 143.074 22.7969 143.426 22.2891C143.777 21.7734 144.219 21.3477 144.75 21.0117C145.281 20.6836 145.867 20.4453 146.508 20.2969C147.156 20.1406 147.797 20.0664 148.43 20.0742C149.094 20.0898 149.723 20.1953 150.316 20.3906C150.91 20.5859 151.426 20.8672 151.863 21.2344C152.293 21.6094 152.617 22.0703 152.836 22.6172C153.062 23.1641 153.141 23.8008 153.07 24.5273L152.191 29.9766C152.121 30.4375 152.066 30.9102 152.027 31.3945C151.996 31.8711 152.062 32.3359 152.227 32.7891L152.215 33H149.062ZM146.262 30.7266C146.582 30.7344 146.895 30.6992 147.199 30.6211C147.504 30.543 147.789 30.4258 148.055 30.2695C148.242 30.1602 148.422 30.0312 148.594 29.8828C148.773 29.7344 148.938 29.5703 149.086 29.3906L149.484 27.1992L148.043 27.1875C147.73 27.1875 147.414 27.2148 147.094 27.2695C146.773 27.3242 146.473 27.4102 146.191 27.5273C146.012 27.6211 145.836 27.7266 145.664 27.8438C145.492 27.9531 145.344 28.0898 145.219 28.2539C145.117 28.3867 145.031 28.5391 144.961 28.7109C144.891 28.8828 144.84 29.0742 144.809 29.2852C144.777 29.5273 144.793 29.7383 144.855 29.918C144.918 30.0977 145.016 30.2461 145.148 30.3633C145.281 30.4805 145.441 30.5703 145.629 30.6328C145.824 30.6953 146.035 30.7266 146.262 30.7266ZM155.32 33L157.523 20.3203L160.383 20.3086L160.172 22.0898C160.375 21.8477 160.586 21.6211 160.805 21.4102C161.031 21.1992 161.27 21.0117 161.52 20.8477C161.887 20.5977 162.285 20.4062 162.715 20.2734C163.152 20.1406 163.617 20.0781 164.109 20.0859C164.844 20.1016 165.449 20.2539 165.926 20.543C166.41 20.832 166.789 21.2148 167.062 21.6914C167.336 22.168 167.516 22.7109 167.602 23.3203C167.688 23.9219 167.695 24.5469 167.625 25.1953L166.324 33H163.148L164.438 25.2305C164.477 24.8633 164.477 24.5312 164.438 24.2344C164.406 23.9297 164.324 23.668 164.191 23.4492C164.051 23.2305 163.852 23.0586 163.594 22.9336C163.344 22.8086 163.02 22.7422 162.621 22.7344C162.355 22.7266 162.102 22.7539 161.859 22.8164C161.617 22.8711 161.391 22.957 161.18 23.0742C160.977 23.1758 160.785 23.3047 160.605 23.4609C160.426 23.6172 160.254 23.7891 160.09 23.9766L158.508 33H155.32ZM170.215 26.6484C170.277 26.1172 170.383 25.582 170.531 25.043C170.68 24.5039 170.871 23.9883 171.105 23.4961C171.34 23.0039 171.617 22.5469 171.938 22.125C172.258 21.7031 172.629 21.3359 173.051 21.0234C173.465 20.7188 173.926 20.4844 174.434 20.3203C174.949 20.1484 175.512 20.0703 176.121 20.0859C176.496 20.0938 176.855 20.1445 177.199 20.2383C177.551 20.3242 177.875 20.457 178.172 20.6367C178.352 20.7461 178.523 20.8789 178.688 21.0352C178.852 21.1836 179 21.3516 179.133 21.5391L179.555 20.3086L182.473 20.3203L180.387 32.5898C180.262 33.4492 180.008 34.2188 179.625 34.8984C179.242 35.5781 178.762 36.1484 178.184 36.6094C177.598 37.0781 176.93 37.4297 176.18 37.6641C175.43 37.9062 174.625 38.0156 173.766 37.9922C172.922 37.9766 172.105 37.793 171.316 37.4414C170.527 37.0977 169.867 36.5938 169.336 35.9297L170.965 33.9844C171.316 34.4375 171.727 34.7891 172.195 35.0391C172.664 35.2969 173.191 35.4336 173.777 35.4492C174.23 35.4648 174.648 35.4062 175.031 35.2734C175.414 35.1484 175.754 34.9609 176.051 34.7109C176.348 34.4688 176.598 34.1719 176.801 33.8203C177.004 33.4766 177.152 33.0859 177.246 32.6484L177.41 31.8984C177.215 32.0859 177.012 32.2578 176.801 32.4141C176.59 32.5703 176.371 32.7031 176.145 32.8125C175.855 32.9609 175.551 33.0703 175.23 33.1406C174.918 33.2109 174.586 33.2422 174.234 33.2344C173.672 33.2266 173.172 33.1289 172.734 32.9414C172.305 32.7539 171.934 32.5 171.621 32.1797C171.301 31.8672 171.035 31.5039 170.824 31.0898C170.621 30.6758 170.465 30.2344 170.355 29.7656C170.238 29.3047 170.168 28.8281 170.145 28.3359C170.121 27.8438 170.133 27.3633 170.18 26.8945L170.215 26.6484ZM173.379 26.8945C173.355 27.1367 173.34 27.3984 173.332 27.6797C173.324 27.9531 173.336 28.2227 173.367 28.4883C173.398 28.7617 173.453 29.0234 173.531 29.2734C173.609 29.5156 173.723 29.7305 173.871 29.918C174.02 30.1133 174.203 30.2734 174.422 30.3984C174.648 30.5156 174.922 30.5781 175.242 30.5859C175.523 30.5938 175.789 30.5664 176.039 30.5039C176.289 30.4414 176.52 30.3477 176.73 30.2227C176.91 30.1211 177.078 29.9961 177.234 29.8477C177.398 29.6992 177.555 29.5352 177.703 29.3555L178.664 23.9531C178.562 23.7344 178.441 23.5469 178.301 23.3906C178.16 23.2266 178.004 23.0938 177.832 22.9922C177.668 22.9062 177.492 22.8398 177.305 22.793C177.117 22.7461 176.914 22.7188 176.695 22.7109C176.164 22.7031 175.703 22.8203 175.312 23.0625C174.922 23.2969 174.598 23.6055 174.34 23.9883C174.074 24.3711 173.863 24.8008 173.707 25.2773C173.559 25.7461 173.457 26.2031 173.402 26.6484L173.379 26.8945ZM189.633 33.2344C188.766 33.2266 187.98 33.0625 187.277 32.7422C186.582 32.4219 185.996 31.9883 185.52 31.4414C185.035 30.9023 184.68 30.2656 184.453 29.5312C184.227 28.7969 184.152 28 184.23 27.1406L184.277 26.6602C184.355 25.957 184.52 25.2773 184.77 24.6211C185.027 23.9648 185.355 23.3633 185.754 22.8164C186.035 22.457 186.344 22.1211 186.68 21.8086C187.016 21.4883 187.375 21.2109 187.758 20.9766C188.242 20.6875 188.77 20.4648 189.34 20.3086C189.91 20.1445 190.512 20.0703 191.145 20.0859C192.027 20.1094 192.789 20.293 193.43 20.6367C194.07 20.9805 194.59 21.4375 194.988 22.0078C195.379 22.5859 195.645 23.2461 195.785 23.9883C195.934 24.7305 195.957 25.5117 195.855 26.332L195.645 27.7148H187.359C187.344 28.1211 187.395 28.5 187.512 28.8516C187.629 29.1953 187.801 29.4961 188.027 29.7539C188.246 30.0117 188.52 30.2188 188.848 30.375C189.176 30.5234 189.551 30.6016 189.973 30.6094C190.637 30.6328 191.262 30.5195 191.848 30.2695C192.441 30.0117 192.965 29.6484 193.418 29.1797L194.859 30.9492C194.297 31.7305 193.535 32.3086 192.574 32.6836C191.621 33.0586 190.641 33.2422 189.633 33.2344ZM190.91 22.7109C190.488 22.6953 190.109 22.7656 189.773 22.9219C189.438 23.0781 189.141 23.2891 188.883 23.5547C188.617 23.8203 188.387 24.1211 188.191 24.457C187.996 24.793 187.824 25.1328 187.676 25.4766H192.844L192.902 25.1836C192.957 24.8398 192.949 24.5195 192.879 24.2227C192.809 23.9258 192.688 23.668 192.516 23.4492C192.336 23.2305 192.109 23.0586 191.836 22.9336C191.57 22.8008 191.262 22.7266 190.91 22.7109Z" fill="#27191C"/>
<path d="M233.996 14.253C234.636 14.0879 235.308 14 236 14C240.418 14 244 17.5817 244 22C244 26.4182 240.418 30 236 30C235.29 30 234.602 29.9076 233.947 29.734M233.996 14.253C233.999 14.169 234 14.0847 234 14C234 9.58172 230.418 6 226 6C222.165 6 218.96 8.69878 218.181 12.3009M233.996 14.253C233.954 15.6153 233.571 16.8917 232.93 18M233.947 29.734C233.982 29.4944 234 29.2494 234 29C234 26.581 232.282 24.5632 230 24.1M233.947 29.734C233.591 32.1474 231.512 34 229 34H228C223.582 34 220 37.5818 220 42M218.181 12.3009C217.488 12.1049 216.756 12 216 12C211.582 12 208 15.5817 208 20C208 20.7772 208.111 21.5286 208.318 22.239M218.181 12.3009C220.203 12.8725 221.9 14.2193 222.93 16M208.318 22.239C205.823 22.9664 204 25.2704 204 28C204 31.3138 206.686 34 210 34C212.612 34 214.835 32.3304 215.659 30M208.318 22.239C208.498 22.8606 208.753 23.451 209.07 24" stroke="#27191C" stroke-width="1.5" stroke-linecap="round" stroke-linejoin="round"/>
<path d="M223.672 23.487C222.651 24.4706 220.906 24.6404 219.414 23.8016C217.922 22.9628 217.161 21.3834 217.471 20" stroke="#27191C" stroke-width="1.5" stroke-linecap="round"/>
</svg>
